<svg version="1.1" id="Layer_1" xmlns="http://www.w3.org/2000/svg" xmlns:xlink="http://www.w3.org/1999/xlink" x="0px" y="0px"
	 width="100%" viewBox="0 0 272 256" enable-background="new 0 0 272 256" xml:space="preserve">
<path fill="#d28856" opacity="1.000000" stroke="none" 
	d="
M189.000000,257.000000 
	C126.000000,257.000000 63.500000,257.000000 1.000000,257.000000 
	C1.000000,171.666672 1.000000,86.333336 1.000000,1.000000 
	C91.666664,1.000000 182.333328,1.000000 273.000000,1.000000 
	C273.000000,86.333336 273.000000,171.666672 273.000000,257.000000 
	C245.166672,257.000000 217.333328,257.000000 189.000000,257.000000 
M82.889496,192.583267 
	C95.839668,205.766708 109.738045,217.839935 124.568192,229.383698 
	C125.947319,226.798920 125.601471,224.936951 125.605766,223.154022 
	C125.636726,210.322235 125.624794,197.490341 125.622215,184.658478 
	C125.620438,175.839310 125.616409,175.844025 117.293533,174.104614 
	C116.645836,173.969254 116.039429,173.608887 115.390182,173.512726 
	C110.705833,172.818802 107.116142,170.556198 105.986649,165.812134 
	C104.805099,160.849380 105.666809,156.348511 109.933838,152.752228 
	C118.437126,145.585602 126.739334,138.180969 135.166656,130.923492 
	C148.741104,119.233414 162.445480,107.692009 175.902267,95.868484 
	C182.388321,90.169647 189.468719,89.937698 195.927872,95.692368 
	C199.764587,99.110619 203.860367,102.236458 207.768219,105.577362 
	C209.266678,106.858414 210.491333,107.097313 212.126846,105.740913 
	C215.366974,103.053734 219.206848,102.423470 223.356247,102.572220 
	C228.792816,102.767105 234.241669,102.620003 240.035706,102.620003 
	C239.507736,80.192581 230.880981,62.318371 212.604111,50.661568 
	C184.805603,32.931988 158.733627,37.523010 135.537766,59.817383 
	C133.432236,59.052593 132.868622,57.296883 131.661850,56.191040 
	C106.700188,33.316917 73.109390,35.402096 50.103310,57.268169 
	C28.513496,77.788155 24.797588,106.285080 37.287647,132.944962 
	C47.989212,155.787323 64.566826,174.513306 82.889496,192.583267 
M195.684082,107.835953 
	C186.305298,99.609955 186.349304,99.659203 177.441711,107.618805 
	C172.368729,112.151886 167.126984,116.496269 161.956360,120.919907 
	C146.953323,133.755493 131.944000,146.583786 116.951706,159.431946 
	C115.944138,160.295425 114.813354,161.279388 115.244263,162.791885 
	C115.771446,164.642319 117.450676,164.561813 118.952621,164.578629 
	C122.451897,164.617813 125.971687,164.859604 129.446167,164.572220 
	C133.947403,164.199890 135.521774,165.776352 135.466583,170.441589 
	C135.239838,189.603516 135.370102,208.769730 135.378448,227.934357 
	C135.381805,235.639557 136.314774,236.611832 143.957275,236.616852 
	C172.120956,236.635330 200.284637,236.634201 228.448318,236.621262 
	C235.595505,236.617981 236.611801,235.626495 236.620880,228.608292 
	C236.645630,209.443695 236.617050,190.279007 236.649216,171.114426 
	C236.659515,164.983490 236.996399,164.699783 243.236160,164.639206 
	C246.235611,164.610092 249.235596,164.636444 252.235031,164.606827 
	C253.912201,164.590271 255.752518,164.633728 256.633026,162.891022 
	C257.662506,160.853485 255.808487,159.853760 254.649857,158.806137 
	C250.460358,155.018082 246.379105,151.065430 241.874588,147.684357 
	C238.049347,144.813156 236.273743,141.582901 236.540466,136.720795 
	C236.895950,130.241150 236.615692,123.727051 236.624771,117.227776 
	C236.627441,115.314888 236.519119,113.184448 234.284821,112.814247 
	C229.849213,112.079315 225.315613,111.950104 220.897415,112.906494 
	C218.819061,113.356400 218.475494,115.355156 218.371948,117.313850 
	C218.228333,120.030563 218.858383,122.858185 217.471329,126.282578 
	C210.055847,120.032356 203.120499,114.186821 195.684082,107.835953 
z"/>
<path fill="#d28856" opacity="1.000000" stroke="none" 
	d="
M172.099457,171.621002 
	C183.670563,171.778076 182.253067,170.298920 182.350693,181.508972 
	C182.410660,188.392761 182.336258,188.473572 175.543762,188.397003 
	C164.259048,188.269775 165.902847,189.724915 165.565094,178.110641 
	C165.434662,173.625229 166.553223,170.948227 172.099457,171.621002 
z"/>
<path fill="#d28856" opacity="1.000000" stroke="none" 
	d="
M189.630402,177.087616 
	C189.240646,173.078262 190.551712,171.621597 194.349945,171.545609 
	C206.490402,171.302689 208.563950,173.584320 206.284622,185.562134 
	C206.253677,185.724762 206.300140,185.928436 206.218079,186.051224 
	C202.947433,190.945129 198.073563,187.471756 194.015991,188.305878 
	C191.781891,188.765152 189.639648,188.147675 189.679459,185.042908 
	C189.711365,182.554016 189.648178,180.063919 189.630402,177.087616 
z"/>
<path fill="#d28856" opacity="1.000000" stroke="none" 
	d="
M198.000092,194.620590 
	C200.988632,194.989288 204.768692,193.347778 205.730087,196.031509 
	C207.208618,200.158737 206.727646,204.833908 205.811127,209.235062 
	C205.711334,209.714294 204.493118,210.149612 203.742188,210.262344 
	C202.443604,210.457275 201.104172,210.429092 199.782715,210.414917 
	C188.519897,210.294189 189.704666,211.504181 189.642700,200.866898 
	C189.606567,194.665253 189.680939,194.664825 198.000092,194.620590 
z"/>
<path fill="#d28856" opacity="1.000000" stroke="none" 
	d="
M174.970459,194.618927 
	C182.328827,194.719727 182.332474,194.719711 182.367310,201.380249 
	C182.375977,203.038422 182.385880,204.697891 182.329971,206.354568 
	C182.302277,207.175125 182.435623,208.352905 181.968826,208.751389 
	C178.112335,212.043549 173.508148,209.989578 169.233932,210.250641 
	C166.465942,210.419724 165.667343,208.332642 165.657593,205.898544 
	C165.654282,205.069473 165.619247,204.240295 165.627243,203.411453 
	C165.721146,193.679474 164.765823,194.704514 174.970459,194.618927 
z"/>
</svg>